<svg baseProfile="full" height="512.0" version="1.1" viewBox="-0.0 -0.0 512.0 512.0" width="512.0" xmlns="http://www.w3.org/2000/svg" xmlns:ev="http://www.w3.org/2001/xml-events" xmlns:xlink="http://www.w3.org/1999/xlink"><defs /><path d="M 214.89 83.13 L 211.86 85.62 L 209.37 88.65 L 207.52 92.11 L 206.38 95.86 L 206.00 99.76 L 206.00 104.76 L 122.00 104.76 L 118.10 105.14 L 114.35 106.28 L 110.89 108.13 L 107.86 110.62 L 105.37 113.65 L 103.52 117.11 L 102.38 120.86 L 102.00 124.76 L 102.00 149.76 L 102.38 153.66 L 103.52 157.41 L 105.37 160.87 L 107.86 163.90 L 110.89 166.39 L 114.35 168.24 L 118.10 169.38 L 122.00 169.76 L 128.00 169.76 L 128.00 145.76 L 128.29 142.83 L 129.14 140.02 L 130.53 137.43 L 132.39 135.15 L 134.67 133.29 L 137.26 131.90 L 140.07 131.05 L 143.00 130.76 L 369.00 130.76 L 371.93 131.05 L 374.74 131.90 L 377.33 133.29 L 379.61 135.15 L 381.47 137.43 L 382.86 140.02 L 383.71 142.83 L 384.00 145.76 L 384.00 169.76 L 390.00 169.76 L 393.90 169.38 L 397.65 168.24 L 401.11 166.39 L 404.14 163.90 L 406.63 160.87 L 408.48 157.41 L 409.62 153.66 L 410.00 149.76 L 410.00 124.76 L 409.62 120.86 L 408.48 117.11 L 406.63 113.65 L 404.14 110.62 L 401.11 108.13 L 397.65 106.28 L 393.90 105.14 L 390.00 104.76 L 306.00 104.76 L 306.00 99.76 L 305.62 95.86 L 304.48 92.11 L 302.63 88.65 L 300.14 85.62 L 297.11 83.13 L 293.65 81.28 L 289.90 80.14 L 286.00 79.76 L 226.00 79.76 L 222.10 80.14 L 218.35 81.28 L 214.89 83.13 Z M 238.44 100.11 L 236.94 99.65 L 235.56 98.91 L 234.34 97.92 L 233.35 96.70 L 232.61 95.32 L 232.15 93.82 L 232.00 92.26 L 232.15 90.70 L 232.61 89.20 L 233.35 87.82 L 234.34 86.60 L 235.56 85.61 L 236.94 84.87 L 238.44 84.41 L 240.00 84.26 L 272.00 84.26 L 273.56 84.41 L 275.06 84.87 L 276.44 85.61 L 277.66 86.60 L 278.65 87.82 L 279.39 89.20 L 279.85 90.70 L 280.00 92.26 L 279.85 93.82 L 279.39 95.32 L 278.65 96.70 L 277.66 97.92 L 276.44 98.91 L 275.06 99.65 L 273.56 100.11 L 272.00 100.26 L 240.00 100.26 L 238.44 100.11 Z M 409.91 275.65 L 409.79 267.99 L 409.63 261.55 L 409.42 255.88 L 409.16 250.77 L 408.86 246.08 L 408.51 241.74 L 408.12 237.68 L 407.67 233.85 L 407.19 230.23 L 406.65 226.79 L 406.06 223.51 L 405.43 220.37 L 404.75 217.37 L 404.02 214.49 L 403.25 211.73 L 402.42 209.06 L 401.55 206.50 L 400.62 204.03 L 399.65 201.64 L 398.63 199.34 L 397.55 197.12 L 396.42 194.97 L 395.25 192.90 L 394.02 190.90 L 392.73 188.97 L 391.40 187.10 L 390.01 185.30 L 388.56 183.56 L 387.06 181.88 L 385.50 180.26 L 383.88 178.70 L 382.20 177.20 L 380.46 175.75 L 378.66 174.36 L 376.79 173.03 L 374.86 171.74 L 372.86 170.51 L 370.79 169.34 L 368.64 168.21 L 366.42 167.13 L 364.12 166.11 L 361.73 165.14 L 359.26 164.21 L 356.70 163.34 L 354.03 162.51 L 351.27 161.74 L 348.39 161.01 L 345.39 160.33 L 342.25 159.70 L 338.97 159.11 L 335.53 158.57 L 331.91 158.09 L 328.08 157.64 L 324.02 157.25 L 319.68 156.90 L 314.99 156.60 L 309.88 156.34 L 304.21 156.13 L 297.77 155.97 L 290.11 155.85 L 280.13 155.78 L 256.00 155.76 L 231.87 155.78 L 221.89 155.85 L 214.23 155.97 L 207.79 156.13 L 202.12 156.34 L 197.01 156.60 L 192.32 156.90 L 187.98 157.25 L 183.92 157.64 L 180.09 158.09 L 176.47 158.57 L 173.03 159.11 L 169.75 159.70 L 166.61 160.33 L 163.61 161.01 L 160.73 161.74 L 157.97 162.51 L 155.30 163.34 L 152.74 164.21 L 150.27 165.14 L 147.88 166.11 L 145.58 167.13 L 143.36 168.21 L 141.21 169.34 L 139.14 170.51 L 137.14 171.74 L 135.21 173.03 L 133.34 174.36 L 131.54 175.75 L 129.80 177.20 L 128.12 178.70 L 126.50 180.26 L 124.94 181.88 L 123.44 183.56 L 121.99 185.30 L 120.60 187.10 L 119.27 188.97 L 117.98 190.90 L 116.75 192.90 L 115.58 194.97 L 114.45 197.12 L 113.37 199.34 L 112.35 201.64 L 111.38 204.03 L 110.45 206.50 L 109.58 209.06 L 108.75 211.73 L 107.98 214.49 L 107.25 217.37 L 106.57 220.37 L 105.94 223.51 L 105.35 226.79 L 104.81 230.23 L 104.33 233.85 L 103.88 237.68 L 103.49 241.74 L 103.14 246.08 L 102.84 250.77 L 102.58 255.88 L 102.37 261.55 L 102.21 267.99 L 102.09 275.65 L 102.02 285.63 L 102.00 309.76 L 102.02 333.89 L 102.09 343.87 L 102.21 351.53 L 102.37 357.97 L 102.58 363.64 L 102.84 368.75 L 103.14 373.44 L 103.49 377.78 L 103.88 381.84 L 104.33 385.67 L 104.81 389.29 L 105.35 392.73 L 105.94 396.01 L 106.57 399.15 L 107.25 402.15 L 107.98 405.03 L 108.75 407.79 L 109.58 410.46 L 110.45 413.02 L 111.38 415.49 L 112.35 417.88 L 113.37 420.18 L 114.45 422.40 L 115.58 424.55 L 116.75 426.62 L 117.98 428.62 L 119.27 430.55 L 120.60 432.42 L 121.99 434.22 L 123.44 435.96 L 124.94 437.64 L 126.50 439.26 L 128.12 440.82 L 129.80 442.32 L 131.54 443.77 L 133.34 445.16 L 135.21 446.49 L 137.14 447.78 L 139.14 449.01 L 141.21 450.18 L 143.36 451.31 L 145.58 452.39 L 147.88 453.41 L 150.27 454.38 L 152.74 455.31 L 155.30 456.18 L 157.97 457.01 L 160.73 457.78 L 163.61 458.51 L 166.61 459.19 L 169.75 459.82 L 173.03 460.41 L 176.47 460.95 L 180.09 461.43 L 183.92 461.88 L 187.98 462.27 L 192.32 462.62 L 197.01 462.92 L 202.12 463.18 L 207.79 463.39 L 214.23 463.55 L 221.89 463.67 L 231.87 463.74 L 256.00 463.76 L 280.13 463.74 L 290.11 463.67 L 297.77 463.55 L 304.21 463.39 L 309.88 463.18 L 314.99 462.92 L 319.68 462.62 L 324.02 462.27 L 328.08 461.88 L 331.91 461.43 L 335.53 460.95 L 338.97 460.41 L 342.25 459.82 L 345.39 459.19 L 348.39 458.51 L 351.27 457.78 L 354.03 457.01 L 356.70 456.18 L 359.26 455.31 L 361.73 454.38 L 364.12 453.41 L 366.42 452.39 L 368.64 451.31 L 370.79 450.18 L 372.86 449.01 L 374.86 447.78 L 376.79 446.49 L 378.66 445.16 L 380.46 443.77 L 382.20 442.32 L 383.88 440.82 L 385.50 439.26 L 387.06 437.64 L 388.56 435.96 L 390.01 434.22 L 391.40 432.42 L 392.73 430.55 L 394.02 428.62 L 395.25 426.62 L 396.42 424.55 L 397.55 422.40 L 398.63 420.18 L 399.65 417.88 L 400.62 415.49 L 401.55 413.02 L 402.42 410.46 L 403.25 407.79 L 404.02 405.03 L 404.75 402.15 L 405.43 399.15 L 406.06 396.01 L 406.65 392.73 L 407.19 389.29 L 407.67 385.67 L 408.12 381.84 L 408.51 377.78 L 408.86 373.44 L 409.16 368.75 L 409.42 363.64 L 409.63 357.97 L 409.79 351.53 L 409.91 343.87 L 409.98 333.89 L 410.00 309.76 L 409.98 285.63 L 409.91 275.65 Z M 355.94 331.91 L 355.86 336.88 L 355.76 341.07 L 355.62 344.75 L 355.46 348.07 L 355.26 351.11 L 355.03 353.93 L 354.78 356.57 L 354.49 359.05 L 354.17 361.40 L 353.82 363.64 L 353.44 365.77 L 353.03 367.80 L 352.59 369.75 L 352.12 371.62 L 351.61 373.42 L 351.08 375.15 L 350.51 376.81 L 349.91 378.42 L 349.28 379.97 L 348.61 381.46 L 347.92 382.90 L 347.18 384.30 L 346.42 385.64 L 345.62 386.94 L 344.79 388.20 L 343.92 389.41 L 343.02 390.58 L 342.08 391.71 L 341.10 392.80 L 340.09 393.85 L 339.04 394.86 L 337.95 395.84 L 336.82 396.78 L 335.65 397.68 L 334.44 398.55 L 333.18 399.38 L 331.88 400.18 L 330.54 400.94 L 329.14 401.68 L 327.70 402.37 L 326.21 403.04 L 324.66 403.67 L 323.05 404.27 L 321.39 404.84 L 319.66 405.37 L 317.86 405.88 L 315.99 406.35 L 314.04 406.79 L 312.01 407.20 L 309.88 407.58 L 307.64 407.93 L 305.29 408.25 L 302.81 408.54 L 300.17 408.79 L 297.35 409.02 L 294.31 409.22 L 290.99 409.38 L 287.31 409.52 L 283.12 409.62 L 278.15 409.70 L 271.67 409.74 L 256.00 409.76 L 240.33 409.74 L 233.85 409.70 L 228.88 409.62 L 224.69 409.52 L 221.01 409.38 L 217.69 409.22 L 214.65 409.02 L 211.83 408.79 L 209.19 408.54 L 206.71 408.25 L 204.36 407.93 L 202.12 407.58 L 199.99 407.20 L 197.96 406.79 L 196.01 406.35 L 194.14 405.88 L 192.34 405.37 L 190.61 404.84 L 188.95 404.27 L 187.34 403.67 L 185.79 403.04 L 184.30 402.37 L 182.86 401.68 L 181.46 400.94 L 180.12 400.18 L 178.82 399.38 L 177.56 398.55 L 176.35 397.68 L 175.18 396.78 L 174.05 395.84 L 172.96 394.86 L 171.91 393.85 L 170.90 392.80 L 169.92 391.71 L 168.98 390.58 L 168.08 389.41 L 167.21 388.20 L 166.38 386.94 L 165.58 385.64 L 164.82 384.30 L 164.08 382.90 L 163.39 381.46 L 162.72 379.97 L 162.09 378.42 L 161.49 376.81 L 160.92 375.15 L 160.39 373.42 L 159.88 371.62 L 159.41 369.75 L 158.97 367.80 L 158.56 365.77 L 158.18 363.64 L 157.83 361.40 L 157.51 359.05 L 157.22 356.57 L 156.97 353.93 L 156.74 351.11 L 156.54 348.07 L 156.38 344.75 L 156.24 341.07 L 156.14 336.88 L 156.06 331.91 L 156.02 325.43 L 156.00 309.76 L 156.02 294.09 L 156.06 287.61 L 156.14 282.64 L 156.24 278.45 L 156.38 274.77 L 156.54 271.45 L 156.74 268.41 L 156.97 265.59 L 157.22 262.95 L 157.51 260.47 L 157.83 258.12 L 158.18 255.88 L 158.56 253.75 L 158.97 251.72 L 159.41 249.77 L 159.88 247.90 L 160.39 246.10 L 160.92 244.37 L 161.49 242.71 L 162.09 241.10 L 162.72 239.55 L 163.39 238.06 L 164.08 236.62 L 164.82 235.22 L 165.58 233.88 L 166.38 232.58 L 167.21 231.32 L 168.08 230.11 L 168.98 228.94 L 169.92 227.81 L 170.90 226.72 L 171.91 225.67 L 172.96 224.66 L 174.05 223.68 L 175.18 222.74 L 176.35 221.84 L 177.56 220.97 L 178.82 220.14 L 180.12 219.34 L 181.46 218.58 L 182.86 217.84 L 184.30 217.15 L 185.79 216.48 L 187.34 215.85 L 188.95 215.25 L 190.61 214.68 L 192.34 214.15 L 194.14 213.64 L 196.01 213.17 L 197.96 212.73 L 199.99 212.32 L 202.12 211.94 L 204.36 211.59 L 206.71 211.27 L 209.19 210.98 L 211.83 210.73 L 214.65 210.50 L 217.69 210.30 L 221.01 210.14 L 224.69 210.00 L 228.88 209.90 L 233.85 209.82 L 240.33 209.78 L 256.00 209.76 L 271.67 209.78 L 278.15 209.82 L 283.12 209.90 L 287.31 210.00 L 290.99 210.14 L 294.31 210.30 L 297.35 210.50 L 300.17 210.73 L 302.81 210.98 L 305.29 211.27 L 307.64 211.59 L 309.88 211.94 L 312.01 212.32 L 314.04 212.73 L 315.99 213.17 L 317.86 213.64 L 319.66 214.15 L 321.39 214.68 L 323.05 215.25 L 324.66 215.85 L 326.21 216.48 L 327.70 217.15 L 329.14 217.84 L 330.54 218.58 L 331.88 219.34 L 333.18 220.14 L 334.44 220.97 L 335.65 221.84 L 336.82 222.74 L 337.95 223.68 L 339.04 224.66 L 340.09 225.67 L 341.10 226.72 L 342.08 227.81 L 343.02 228.94 L 343.92 230.11 L 344.79 231.32 L 345.62 232.58 L 346.42 233.88 L 347.18 235.22 L 347.92 236.62 L 348.61 238.06 L 349.28 239.55 L 349.91 241.10 L 350.51 242.71 L 351.08 244.37 L 351.61 246.10 L 352.12 247.90 L 352.59 249.77 L 353.03 251.72 L 353.44 253.75 L 353.82 255.88 L 354.17 258.12 L 354.49 260.47 L 354.78 262.95 L 355.03 265.59 L 355.26 268.41 L 355.46 271.45 L 355.62 274.77 L 355.76 278.45 L 355.86 282.64 L 355.94 287.61 L 355.98 294.09 L 356.00 309.76 L 355.98 325.43 L 355.94 331.91 Z" fill="#FFFFFF" fill-rule="evenodd" /></svg>